
<svg version="1.1" xmlns="http://www.w3.org/2000/svg" viewBox="0 0 2048 1696" preserveAspectRatio="xMidYMid meet">
<defs>
	<linearGradient id="Gradient1" gradientUnits="userSpaceOnUse" x1="1136.5" y1="1258.19" x2="1120.81" y2="1131.93">
		<stop class="stop0" offset="0" stop-opacity="1" stop-color="rgb(17,62,90)"/>
		<stop class="stop1" offset="1" stop-opacity="1" stop-color="rgb(33,96,112)"/>
	</linearGradient>
	<linearGradient id="Gradient2" gradientUnits="userSpaceOnUse" x1="204.733" y1="1258.5" x2="239.67" y2="1136.05">
		<stop class="stop0" offset="0" stop-opacity="1" stop-color="rgb(16,59,88)"/>
		<stop class="stop1" offset="1" stop-opacity="1" stop-color="rgb(26,85,105)"/>
	</linearGradient>
	<linearGradient id="Gradient3" gradientUnits="userSpaceOnUse" x1="1295.89" y1="1263.23" x2="1276.28" y2="1132.89">
		<stop class="stop0" offset="0" stop-opacity="1" stop-color="rgb(16,64,91)"/>
		<stop class="stop1" offset="1" stop-opacity="1" stop-color="rgb(33,97,112)"/>
	</linearGradient>
	<linearGradient id="Gradient4" gradientUnits="userSpaceOnUse" x1="785.161" y1="1259.93" x2="787.819" y2="1135.98">
		<stop class="stop0" offset="0" stop-opacity="1" stop-color="rgb(18,63,91)"/>
		<stop class="stop1" offset="1" stop-opacity="1" stop-color="rgb(32,94,111)"/>
	</linearGradient>
	<linearGradient id="Gradient5" gradientUnits="userSpaceOnUse" x1="580.04" y1="1257.4" x2="625.972" y2="1137.46">
		<stop class="stop0" offset="0" stop-opacity="1" stop-color="rgb(16,63,92)"/>
		<stop class="stop1" offset="1" stop-opacity="1" stop-color="rgb(28,91,110)"/>
	</linearGradient>
	<linearGradient id="Gradient6" gradientUnits="userSpaceOnUse" x1="1455.83" y1="1262.76" x2="1442.75" y2="1133.48">
		<stop class="stop0" offset="0" stop-opacity="1" stop-color="rgb(21,68,95)"/>
		<stop class="stop1" offset="1" stop-opacity="1" stop-color="rgb(31,100,112)"/>
	</linearGradient>
	<linearGradient id="Gradient7" gradientUnits="userSpaceOnUse" x1="1631.56" y1="1264.6" x2="1608.68" y2="1132.05">
		<stop class="stop0" offset="0" stop-opacity="1" stop-color="rgb(21,70,95)"/>
		<stop class="stop1" offset="1" stop-opacity="1" stop-color="rgb(32,101,115)"/>
	</linearGradient>
	<linearGradient id="Gradient8" gradientUnits="userSpaceOnUse" x1="396.294" y1="1261.18" x2="413.706" y2="1134.82">
		<stop class="stop0" offset="0" stop-opacity="1" stop-color="rgb(15,58,88)"/>
		<stop class="stop1" offset="1" stop-opacity="1" stop-color="rgb(25,85,106)"/>
	</linearGradient>
	<linearGradient id="Gradient9" gradientUnits="userSpaceOnUse" x1="967.502" y1="981.026" x2="954.016" y2="718.076">
		<stop class="stop0" offset="0" stop-opacity="1" stop-color="rgb(23,60,99)"/>
		<stop class="stop1" offset="1" stop-opacity="1" stop-color="rgb(24,130,107)"/>
	</linearGradient>
	<linearGradient id="Gradient10" gradientUnits="userSpaceOnUse" x1="991.538" y1="405.974" x2="1012.57" y2="840.212">
		<stop class="stop0" offset="0" stop-opacity="1" stop-color="rgb(19,143,92)"/>
		<stop class="stop1" offset="1" stop-opacity="1" stop-color="rgb(27,125,114)"/>
	</linearGradient>
</defs>
<path transform="translate(0,0)" fill="url(#Gradient10)" d="M 987.771 405.268 C 999.981 403.767 1012.15 405.064 1023.39 410.18 C 1038.35 416.97 1049.98 429.46 1055.67 444.869 C 1069.87 483.501 1047.83 517.525 1010.77 530.516 C 1010.87 585.302 1009.27 644.309 1010.72 698.406 C 1029.29 721.539 1031.15 732.425 1041.72 758.573 C 1043.18 744.809 1042.06 731.304 1042.21 717.541 C 1042.51 688.711 1040.66 657.577 1041.84 628.93 C 1063.64 606.301 1091.76 582.452 1112.16 559.693 L 1112.04 521.561 C 1094.13 509.435 1081.85 494.601 1090.04 470.948 C 1097.37 449.764 1121.91 437.702 1143.35 446.904 C 1153.66 451.421 1161.69 459.932 1165.6 470.485 C 1174.75 494.835 1159.95 515.866 1136.91 523.743 C 1137.03 539.311 1136.98 554.88 1136.75 570.447 C 1114.18 593.614 1089.64 615.483 1066.84 638.859 C 1066.59 678.263 1066.91 717.669 1067.8 757.065 L 1096.31 741.682 C 1096.09 714.786 1096.03 687.888 1096.14 660.991 C 1116.17 642.822 1135.41 623.212 1155.63 604.742 C 1160.74 586.172 1173.08 571.817 1193.53 571.188 C 1204.66 570.941 1215.42 575.233 1223.32 583.078 C 1231.16 590.574 1235.64 600.916 1235.75 611.761 C 1235.96 638.875 1205.03 658.624 1181.05 647.685 C 1171.84 643.484 1168.22 639.926 1161.17 632.775 C 1149.79 642.676 1130.74 660.914 1120.34 671.741 C 1120.24 691.162 1120.4 710.584 1120.81 730.001 C 1145.33 723.411 1168.67 713.909 1192.49 705.914 C 1211.45 699.551 1234.52 692.187 1253.26 700.952 C 1268.09 707.883 1291.6 736.737 1265.08 744 C 1255.56 738.479 1251.15 728.291 1241.81 721.015 C 1227.03 721.268 1215.82 722.75 1202.06 728.099 C 1224.46 739.78 1251.92 747.031 1269.98 768.137 C 1269.82 785.153 1259.69 814.275 1248.68 828.257 C 1247.6 829.626 1244.26 831.997 1242.72 831.559 C 1232.11 828.547 1221.62 815.932 1212.02 810.138 C 1203.54 805.015 1197.42 801.64 1189.1 797.815 C 1164.1 786.315 1144.19 792.264 1118.47 796.55 C 1108.91 798.142 1098.87 798.045 1089.73 798.177 C 997.884 799.505 1031.87 753.222 981.357 702.94 C 935.417 656.46 855.978 651.993 796.865 672.374 C 779.796 678.259 762.679 690.276 745.29 692.922 C 742.443 693.355 739.451 691.444 737.466 689.449 C 728.998 668.731 774.884 654.271 788.111 649.649 C 833.705 633.718 882.395 633.306 929.082 644.445 L 929.364 571.765 C 918.667 560.773 903.201 547.209 891.608 536.388 C 853.315 580.111 802.469 529.155 827.179 490.719 C 833.016 481.669 842.259 475.358 852.812 473.218 C 863.305 471.12 874.201 473.341 883.035 479.379 C 895.259 487.646 898.188 497.216 900.751 510.874 C 912.769 525.076 946.023 550.796 953.904 562.032 L 953.972 652.564 C 964.573 658.9 975.021 666.067 985.313 672.94 C 985.076 625.839 985.251 578.737 985.836 531.639 C 978.586 528.927 971.497 526.243 964.987 522.012 C 914.676 489.316 928.656 416.816 987.771 405.268 z"/>
<path transform="translate(0,0)" fill="rgb(255,255,255)" d="M 989.111 429.736 C 1002.65 426.789 1016.73 431.358 1025.97 441.695 C 1035.2 452.031 1038.16 466.536 1033.71 479.662 C 1029.26 492.788 1018.09 502.503 1004.47 505.093 C 983.8 509.023 963.808 495.611 959.605 474.994 C 955.403 454.376 968.55 434.209 989.111 429.736 z"/>
<path transform="translate(0,0)" fill="rgb(255,255,255)" d="M 1151.26 750.377 C 1175.18 748.687 1195.63 752.639 1217.13 763.48 C 1226.28 768.093 1239.08 772.726 1244.3 781.88 C 1245.38 787.439 1241.31 792.386 1238.24 797.162 C 1224.42 787.114 1217.14 781.149 1201.27 774.314 C 1158.21 756.367 1132.87 773.75 1092.07 774.26 C 1110.25 758.951 1128.2 753.155 1151.26 750.377 z"/>
<path transform="translate(0,0)" fill="rgb(255,255,255)" d="M 1124.98 468.395 C 1130.57 467.264 1136.34 469.226 1140.08 473.53 C 1143.82 477.835 1144.96 483.819 1143.06 489.198 C 1141.16 494.577 1136.52 498.521 1130.91 499.524 C 1122.36 501.051 1114.18 495.418 1112.55 486.89 C 1110.93 478.363 1116.47 470.116 1124.98 468.395 z"/>
<path transform="translate(0,0)" fill="rgb(255,255,255)" d="M 854.973 497.619 C 860.232 495.828 866.049 497.007 870.195 500.706 C 874.341 504.404 876.174 510.049 874.993 515.478 C 873.811 520.907 869.797 525.279 864.489 526.92 C 856.442 529.407 847.889 524.971 845.287 516.96 C 842.686 508.95 847 500.334 854.973 497.619 z"/>
<path transform="translate(0,0)" fill="rgb(255,255,255)" d="M 1190.29 596.673 C 1198.08 593.617 1206.89 597.441 1209.98 605.227 C 1213.07 613.013 1209.28 621.832 1201.51 624.954 C 1193.69 628.096 1184.8 624.282 1181.7 616.449 C 1178.59 608.616 1182.44 599.748 1190.29 596.673 z"/>
<path transform="translate(0,0)" fill="url(#Gradient9)" d="M 848.255 722.392 C 857.279 721.24 878.092 721.818 886.483 723.077 C 950.907 732.747 945.806 769.111 975.805 811.512 C 997.14 841.667 1035.35 856.509 1071.14 861.386 C 1075.77 869.447 1081.58 884.079 1085.78 893.233 C 1089.74 892.354 1093.7 891.513 1097.68 890.711 C 1119.75 886.305 1163.42 885.778 1176.49 916.449 C 1178.72 921.676 1160.62 933.51 1155.47 937.215 C 1119.1 963.352 1080.5 976.489 1036 979.953 C 1031.95 966.702 1023.75 936.908 1017.29 926.214 C 1007.08 920.059 991.36 913.745 981.079 907.971 C 936.063 882.688 908.634 846.601 885.797 801.515 C 873.147 776.541 821.487 806.594 803.254 805.74 C 800.451 805.609 798.281 802.981 796.771 800.546 C 794.624 789.632 814.315 779.503 822.818 775.957 C 844.531 766.901 882.769 757.821 903.219 774.174 C 910.329 779.86 917.757 801.849 922.656 810.278 C 939.369 842.315 967.541 871.109 1000.14 887.17 C 1013.55 893.773 1024.4 896.633 1037.84 901.779 C 1045.58 914.349 1053.6 945.031 1059.55 949.805 C 1066.83 951.742 1077.09 949.077 1083.92 946.723 C 1094.19 943.19 1136.43 925.371 1140.35 917.578 C 1135.31 910.517 1119.85 913.7 1112.75 915.646 C 1102.19 919.284 1078.96 932.199 1070.44 931.123 C 1066.02 928.775 1065.14 925.261 1063.56 920.732 C 1059.5 909.109 1055.15 897.89 1050.1 886.655 C 1000.78 873.415 966.693 851.927 940.305 806.874 C 933.828 795.815 927.786 778.36 920.245 768.973 C 891.966 733.773 824.877 747.843 794.421 773.203 C 775.446 788.723 774.132 801.19 789.374 820.086 C 790.776 821.824 793.69 824.253 796.144 825.053 C 812.041 824.345 826.816 815.764 842.406 812.903 C 855.029 810.535 858.385 810.497 870.302 811.238 C 876.223 818.594 882.072 831.297 887.314 839.791 C 908.864 874.902 938.664 904.433 975.133 923.869 C 983.038 928.082 996.567 934.212 1003.16 939.406 C 1012.17 946.507 1015.56 969.611 1016.16 980.269 C 1006.63 981.137 997.924 980.918 988.374 980.832 C 985.733 971.817 984.187 966.028 980.015 957.617 C 971.349 950.883 951.811 941.577 941.077 935.757 C 913.814 920.976 886.817 898.62 855.71 893.846 C 843.592 891.987 833.3 898.765 821.72 899.334 C 814.432 899.691 804.997 887.009 806.6 879.96 C 811.7 862.271 848.266 861.155 856.583 855.527 C 858.63 851.241 858.555 845.411 854.16 842.848 C 841.97 835.737 823.66 846.319 813.595 852.016 C 805.723 856.471 792.626 866.653 785.497 859.565 C 779.709 853.809 770.835 837.768 767.196 830.235 C 757.921 811.034 747.534 789.972 745.263 768.77 C 749.516 764.615 758.892 758.9 764.31 755.638 C 789.379 740.547 818.832 725.101 848.255 722.392 z"/>
<path transform="translate(0,0)" fill="rgb(23,92,107)" d="M 844.355 678.398 C 848.342 677.795 858.597 677.633 862.961 677.589 C 916.716 677.047 966.819 695.86 991.57 746.344 C 999.798 763.125 1003.56 781.744 1017.72 794.545 C 1046.03 820.129 1077.32 817.216 1111.76 816.656 C 1123.87 852.016 1116.27 839.763 1151.8 848.528 C 1172.28 853.579 1198.37 867.891 1209.45 886.954 C 1205.98 892.447 1201.82 899.022 1195.93 902.057 C 1190.13 902.69 1182.8 894.639 1177.64 890.62 C 1149.05 868.343 1128.26 868.867 1094.44 872.832 C 1090.65 868.303 1086.88 853.626 1082.84 846.108 C 1064.32 842.432 1059.15 843.023 1039.67 836.632 C 1013.84 828.153 990.178 807.477 978.23 783.297 C 963.603 753.695 958.951 733.626 926.214 717.391 C 882.469 695.697 827.178 701.232 785.128 724.603 C 773.123 730.47 761.447 739.108 749.024 743.87 C 740.103 747.29 738.234 727.272 737.598 722.761 C 745.199 715.377 752.833 711.856 761.786 706.614 C 790.55 689.772 810.814 681.565 844.355 678.398 z"/>
<path transform="translate(0,0)" fill="url(#Gradient8)" d="M 401.093 1133.36 C 437.128 1130.8 468.424 1157.92 471.02 1193.95 C 473.617 1229.98 446.531 1261.31 410.501 1263.94 C 374.421 1266.57 343.045 1239.44 340.445 1203.36 C 337.845 1167.28 365.008 1135.93 401.093 1133.36 z"/>
<path transform="translate(0,0)" fill="rgb(255,255,255)" d="M 396.082 1157.21 C 418.869 1151.88 441.659 1166.04 446.963 1188.84 C 452.267 1211.63 438.073 1234.4 415.273 1239.68 C 392.511 1244.95 369.785 1230.78 364.49 1208.03 C 359.195 1185.27 373.333 1162.53 396.082 1157.21 z"/>
<path transform="translate(0,0)" fill="url(#Gradient7)" d="M 1578 1135.06 C 1590.62 1134.96 1621.59 1134.03 1632.48 1136.37 C 1644.89 1138.99 1655.7 1146.54 1662.45 1157.28 C 1677.88 1182.06 1668.27 1208.22 1644.29 1222.73 C 1650.28 1233.53 1663.29 1250.22 1667.77 1260.08 C 1664.4 1261.52 1660.53 1261.14 1656.75 1261.16 L 1641.19 1261.19 C 1633.91 1250.03 1626.46 1238.98 1618.84 1228.06 L 1601.96 1228 C 1601.72 1238.91 1601.79 1250.22 1601.72 1261.17 L 1578.02 1261.11 L 1578 1135.06 z"/>
<path transform="translate(0,0)" fill="rgb(255,255,255)" d="M 1601.96 1157.1 C 1617.93 1157.16 1642.55 1154.8 1644.97 1176.74 C 1646.06 1186.65 1644.76 1190.76 1638.75 1198.49 C 1626.59 1207.58 1617.11 1205.4 1601.98 1205.09 C 1601.71 1189.29 1601.95 1172.94 1601.96 1157.1 z"/>
<path transform="translate(0,0)" fill="url(#Gradient6)" d="M 1406.72 1135.04 C 1419.4 1134.98 1449.26 1134.18 1460.01 1136.3 C 1472.19 1138.6 1482.88 1145.79 1489.62 1156.19 C 1496.4 1166.69 1498.83 1181.4 1495.83 1193.49 C 1492.14 1208.34 1484.16 1214.65 1472.04 1222.32 C 1478.61 1234.58 1489.2 1247.54 1495.75 1260.1 C 1493.66 1261.59 1490.99 1261.16 1488.25 1261.15 L 1469.39 1261.17 C 1462.14 1249.96 1454.66 1238.91 1446.95 1228.02 L 1430.61 1227.98 C 1430.27 1239.02 1430.07 1250.07 1430.02 1261.11 L 1406.54 1261.05 C 1405.46 1220.91 1406.64 1175.63 1406.72 1135.04 z"/>
<path transform="translate(0,0)" fill="rgb(255,255,255)" d="M 1430.58 1157.47 C 1436.51 1157.38 1442.63 1157.51 1448.53 1157.35 C 1471.43 1156.72 1480.66 1181.37 1466.52 1198.57 C 1455.14 1207.4 1445.01 1205.21 1430.57 1204.96 C 1430.4 1189.13 1430.4 1173.3 1430.58 1157.47 z"/>
<path transform="translate(0,0)" fill="url(#Gradient5)" d="M 597.519 1133.28 C 619.908 1130.19 638.914 1138.75 654.612 1154.15 C 650.656 1160.21 645.523 1166.76 641.146 1172.62 C 626.046 1157.32 608.224 1149.49 587.13 1159.21 C 577.361 1163.78 569.833 1172.08 566.233 1182.25 C 562.148 1193.74 562.779 1208.95 568.254 1219.92 C 572.997 1229.58 581.462 1236.89 591.706 1240.19 C 605.952 1244.64 617.811 1241.29 630.486 1234.79 C 630.676 1226.95 630.378 1218.49 630.25 1210.61 C 623.407 1210.28 614.849 1210.54 607.878 1210.56 L 602.643 1193.25 C 601.986 1191.17 602.171 1191.81 602.169 1189.55 C 606.553 1188.08 646.638 1188.51 654.007 1188.51 C 654.511 1207.12 654.545 1226.29 654.799 1244.95 C 589.619 1299.72 507.172 1229.33 552.901 1158.47 C 562.446 1143.68 580.561 1135.93 597.519 1133.28 z"/>
<path transform="translate(0,0)" fill="url(#Gradient4)" d="M 740.087 1133.29 C 745.55 1135.6 801.258 1196.87 810.317 1206.16 C 811.234 1183.37 810.505 1158.3 810.565 1135.23 L 834.463 1135.21 C 834.805 1177.33 834.78 1219.45 834.388 1261.57 C 827.438 1259.94 772.653 1197.66 762.983 1187.88 L 762.97 1260.99 L 739.685 1261.05 C 739.771 1220.49 738.408 1173.41 740.087 1133.29 z"/>
<path transform="translate(0,0)" fill="url(#Gradient3)" d="M 1246.69 1135.08 L 1328.21 1135.14 C 1324.83 1143.49 1321.8 1149.9 1317.86 1157.92 L 1270.4 1157.87 C 1270.3 1167.57 1270.33 1177.27 1270.49 1186.96 L 1317.48 1187.06 C 1317.78 1194.15 1317.7 1201.78 1317.77 1208.91 C 1308.57 1208.84 1277.74 1208.08 1271.03 1209.35 L 1270.1 1210.97 L 1270.28 1238.84 L 1320.22 1238.8 C 1322.42 1245.36 1326.33 1254.4 1328.95 1261.04 L 1246.75 1261.15 C 1246.19 1219.69 1246.66 1176.66 1246.69 1135.08 z"/>
<path transform="translate(0,0)" fill="url(#Gradient2)" d="M 220.747 1133.39 C 221.774 1133.27 222.805 1133.19 223.839 1133.16 C 243.547 1132.6 258.508 1139.95 272.586 1153.14 C 269.404 1159.46 264.126 1167.43 260.294 1173.58 C 252.223 1164.96 243.403 1157.45 231.256 1156.09 C 174.621 1149.76 167.614 1234.98 222.676 1241.77 C 235.347 1243.33 245.126 1239.03 254.933 1231.32 L 261.493 1225.06 C 266.325 1232.21 269.952 1238.05 274.303 1245.44 C 251.14 1267.49 210.196 1271.23 186.178 1250.82 C 141.094 1212.49 159.742 1139.64 220.747 1133.39 z"/>
<path transform="translate(0,0)" fill="rgb(22,73,98)" d="M 968.184 1131.64 C 971.967 1135.72 1019.09 1248.05 1024.47 1260.97 L 999.202 1261.06 C 995.674 1251.51 991.979 1242.03 988.119 1232.62 C 981.079 1232.25 972.883 1232.41 965.75 1232.37 L 947.82 1232.66 L 936.106 1260.92 L 910.841 1261.03 C 915.128 1248.17 931.628 1213.66 937.943 1199.88 C 947.515 1178.99 958.265 1151.38 968.184 1131.64 z"/>
<path transform="translate(0,0)" fill="rgb(255,255,255)" d="M 967.208 1187.67 C 970.008 1190.85 976.539 1205.04 974.461 1209.07 L 971.249 1209.36 C 966.446 1209.57 963.779 1210.7 960.966 1206.77 C 960.236 1201.5 964.919 1192.99 967.208 1187.67 z"/>
<path transform="translate(0,0)" fill="rgb(23,92,107)" d="M 1801.55 1132.37 C 1806.83 1135.25 1845.81 1234.57 1853.12 1247.52 C 1853.98 1249.04 1857.84 1258.83 1858.68 1260.95 L 1833.78 1261.06 C 1829.88 1251.8 1826.13 1241.99 1822.39 1232.63 C 1815.3 1232.38 1807.87 1232.39 1800.75 1232.28 L 1781.75 1232.32 C 1777.63 1241.21 1773.41 1251.84 1769.52 1260.97 L 1744.76 1261.02 C 1748.44 1250.39 1758.63 1229.68 1763.58 1218.62 C 1776.53 1190 1789.19 1161.25 1801.55 1132.37 z"/>
<path transform="translate(0,0)" fill="rgb(255,255,255)" d="M 1801.46 1187.72 C 1804.35 1190.87 1810.59 1205 1808.46 1209.1 L 1805.25 1209.35 C 1800.76 1209.55 1798.08 1210.55 1795.17 1207.1 C 1794.38 1201.49 1799.01 1193.4 1801.46 1187.72 z"/>
<path transform="translate(0,0)" fill="url(#Gradient1)" d="M 1077.15 1135.14 L 1167.15 1135.27 C 1163.62 1143.05 1159.99 1150.79 1156.25 1158.47 L 1133.79 1158.15 C 1133.47 1181.41 1133.77 1205.35 1133.79 1228.67 L 1133.56 1261.06 L 1110 1261.04 L 1109.92 1157.79 L 1086.15 1157.62 C 1083.63 1150.39 1080.1 1142.32 1077.15 1135.14 z"/>
<path transform="translate(0,0)" fill="rgb(23,92,107)" d="M 1153.48 808.324 C 1182.3 807.377 1220.27 829.992 1234.03 854.821 C 1232.07 858.94 1227.07 868.067 1222.7 869.759 C 1220.02 870.792 1219.77 869.966 1216.83 868.697 C 1200.52 854.87 1185.18 840.684 1164.16 834.109 C 1153.72 830.843 1135.14 831.069 1131.63 819.94 C 1132.87 810.697 1145.86 809.344 1153.48 808.324 z"/>
<path transform="translate(0,0)" fill="rgb(22,73,98)" d="M 844.605 911.109 C 846.474 910.984 848.346 910.917 850.219 910.908 C 866.342 910.774 927.918 935.003 905.238 956.77 C 894.461 958.263 842.56 928.358 839.93 917.566 C 841.167 913.49 841.119 914.502 844.605 911.109 z"/>
<path transform="translate(0,0)" fill="rgb(22,73,98)" d="M 931.77 955.191 C 940.656 956.464 963.676 965.348 967.238 973.931 C 964.096 976.74 965.861 975.868 961.766 976.69 C 952.911 975.531 926.569 972.368 926.169 961.743 C 927.912 958.012 928.435 957.856 931.77 955.191 z"/>
</svg>
